<?xml version="1.0" encoding="UTF-8" standalone="no"?><!DOCTYPE svg PUBLIC "-//W3C//DTD SVG 1.1//EN" "http://www.w3.org/Graphics/SVG/1.1/DTD/svg11.dtd"><svg width="100%" height="100%" viewBox="0 0 800 800" version="1.1" xmlns="http://www.w3.org/2000/svg" xmlns:xlink="http://www.w3.org/1999/xlink" xml:space="preserve" xmlns:serif="http://www.serif.com/" style="fill-rule:evenodd;clip-rule:evenodd;stroke-linejoin:round;stroke-miterlimit:2;"><g><path d="M775,459.35c14.111,-1.098 25,-12.891 25,-27.027l0,-64.648c0,-14.161 -10.889,-25.928 -25,-27.052l-85.669,-6.689c-5.444,-0.416 -10.131,-3.833 -12.231,-8.887l-28.173,-67.994c-2.1,-5.03 -1.22,-10.791 2.344,-14.917l55.859,-65.333c9.18,-10.767 8.594,-26.783 -1.441,-36.792l-45.703,-45.703c-10.009,-10.009 -26.05,-10.645 -36.792,-1.441l-65.333,55.859c-4.127,3.541 -9.912,4.444 -14.917,2.369l-68.017,-28.198c-5.03,-2.075 -8.472,-6.836 -8.911,-12.231l-6.666,-85.645c-1.098,-14.131 -12.866,-25.02 -27.025,-25.02l-64.648,0c-14.161,0 -25.928,10.889 -27.027,25.025l-6.689,85.645c-0.416,5.42 -3.858,10.156 -8.887,12.231l-68.017,28.198c-5.03,2.075 -10.791,1.172 -14.942,-2.369l-65.308,-55.859c-10.742,-9.205 -26.758,-8.569 -36.792,1.441l-45.703,45.703c-10.009,10.009 -10.62,26.025 -1.441,36.792l55.859,65.333c3.516,4.127 4.444,9.887 2.344,14.917l-28.173,67.994c-2.052,5.053 -6.811,8.472 -12.208,8.887l-85.692,6.686c-14.111,1.123 -25,12.891 -25,27.052l0,64.623c0,14.161 10.889,25.952 25,27.052l85.694,6.666c5.395,0.439 10.156,3.881 12.208,8.911l28.173,67.994c2.1,5.03 1.172,10.816 -2.344,14.942l-55.859,65.333c-9.18,10.742 -8.569,26.758 1.441,36.792l45.703,45.703c10.034,10.009 26.05,10.62 36.792,1.416l65.308,-55.859c4.15,-3.516 9.912,-4.444 14.942,-2.344l68.017,28.173c5.03,2.1 8.472,6.811 8.887,12.256l6.689,85.645c1.098,14.111 12.866,25.025 27.027,25.025l64.648,0c14.161,0 25.928,-10.913 27.027,-25.025l6.666,-85.645c0.439,-5.444 3.881,-10.156 8.911,-12.256l68.017,-28.173c5.005,-2.1 10.816,-1.172 14.917,2.344l65.333,55.859c10.742,9.205 26.783,8.594 36.792,-1.416l45.703,-45.703c10.034,-10.034 10.62,-26.05 1.441,-36.792l-55.859,-65.333c-3.516,-4.127 -4.444,-9.912 -2.344,-14.942l28.173,-67.994c2.1,-5.03 6.788,-8.472 12.231,-8.911l85.666,-6.667Zm-375,75.831c-36.108,0 -70.069,-14.062 -95.606,-39.575c-25.537,-25.561 -39.6,-59.497 -39.6,-95.63c0,-36.108 14.062,-70.069 39.6,-95.581c25.538,-25.561 59.497,-39.6 95.606,-39.6c36.133,0 70.069,14.038 95.606,39.6c25.537,25.513 39.6,59.473 39.6,95.581c0,36.133 -14.062,70.069 -39.6,95.63c-25.538,25.512 -59.473,39.575 -95.606,39.575Z" style="fill:#434343;fill-rule:nonzero;"/></g></svg>